<svg id="Layer_1" data-name="Layer 1" xmlns="http://www.w3.org/2000/svg" viewBox="0 0 250 175"><defs><style>.cls-1{fill:#fff;}</style></defs><title>camera5pt</title><path class="cls-1" d="M82.57,272.5a5.07,5.07,0,0,1-5.07-5.07V132.57a5.07,5.07,0,0,1,5.07-5.07h24.86a10.08,10.08,0,0,0,10.07-10.07v-9.86a5.07,5.07,0,0,1,5.07-5.07H277.43a5.07,5.07,0,0,1,5.07,5.07v9.86a10.08,10.08,0,0,0,10.07,10.07h24.86a5.07,5.07,0,0,1,5.07,5.07V267.43a5.07,5.07,0,0,1-5.07,5.07Z" transform="translate(-75 -100)"/><path d="M277.43,105a2.57,2.57,0,0,1,2.57,2.57v9.86A12.59,12.59,0,0,0,292.57,130h24.86a2.57,2.57,0,0,1,2.57,2.57V267.43a2.57,2.57,0,0,1-2.57,2.57H82.57A2.57,2.57,0,0,1,80,267.43V132.57A2.57,2.57,0,0,1,82.57,130h24.86A12.59,12.59,0,0,0,120,117.43v-9.86a2.57,2.57,0,0,1,2.57-2.57H277.43m0-5H122.57a7.57,7.57,0,0,0-7.57,7.57v9.86a7.57,7.57,0,0,1-7.57,7.57H82.57A7.57,7.57,0,0,0,75,132.57V267.43A7.57,7.57,0,0,0,82.57,275H317.43a7.57,7.57,0,0,0,7.57-7.57V132.57a7.57,7.57,0,0,0-7.57-7.57H292.57a7.57,7.57,0,0,1-7.57-7.57v-9.86a7.57,7.57,0,0,0-7.57-7.57Z" transform="translate(-75 -100)"/><circle class="cls-1" cx="129" cy="96" r="47.5"/><path d="M204,151a45,45,0,1,1-45,45,45.05,45.05,0,0,1,45-45m0-5a50,50,0,1,0,50,50,50,50,0,0,0-50-50Z" transform="translate(-75 -100)"/></svg>