<svg id="Layer_1" data-name="Layer 1" xmlns="http://www.w3.org/2000/svg" viewBox="0 0 250 175"><defs><style>.cls-1{fill:#fff;}</style></defs><title>camera</title><path class="cls-1" d="M82.57,274.5a7.08,7.08,0,0,1-7.07-7.07V132.57a7.08,7.08,0,0,1,7.07-7.07h24.86a8.08,8.08,0,0,0,8.07-8.07v-9.86a7.08,7.08,0,0,1,7.07-7.07H277.43a7.08,7.08,0,0,1,7.07,7.07v9.86a8.08,8.08,0,0,0,8.07,8.07h24.86a7.08,7.08,0,0,1,7.07,7.07V267.43a7.08,7.08,0,0,1-7.07,7.07Z" transform="translate(-75 -100)"/><path d="M277.43,101a6.58,6.58,0,0,1,6.57,6.57v9.86a8.57,8.57,0,0,0,8.57,8.57h24.86a6.58,6.58,0,0,1,6.57,6.57V267.43a6.58,6.58,0,0,1-6.57,6.57H82.57A6.58,6.58,0,0,1,76,267.43V132.57A6.58,6.58,0,0,1,82.57,126h24.86a8.57,8.57,0,0,0,8.57-8.57v-9.86a6.58,6.58,0,0,1,6.57-6.57H277.43m0-1H122.57a7.57,7.57,0,0,0-7.57,7.57v9.86a7.57,7.57,0,0,1-7.57,7.57H82.57A7.57,7.57,0,0,0,75,132.57V267.43A7.57,7.57,0,0,0,82.57,275H317.43a7.57,7.57,0,0,0,7.57-7.57V132.57a7.57,7.57,0,0,0-7.57-7.57H292.57a7.57,7.57,0,0,1-7.57-7.57v-9.86a7.57,7.57,0,0,0-7.57-7.57Z" transform="translate(-75 -100)"/><circle class="cls-1" cx="129" cy="96" r="49.5"/><path d="M204,147a49,49,0,1,1-49,49,49.05,49.05,0,0,1,49-49m0-1a50,50,0,1,0,50,50,50,50,0,0,0-50-50Z" transform="translate(-75 -100)"/></svg>