<svg id="Layer_1" data-name="Layer 1" xmlns="http://www.w3.org/2000/svg" viewBox="0 0 200 200"><defs><style>.cls-1{fill:#fff;}</style></defs><title>comment</title><path class="cls-1" d="M200,299.5A99.5,99.5,0,1,1,299.5,200a98.55,98.55,0,0,1-20.89,61l-.11.14V293.5H234.1l-.08,0A99.26,99.26,0,0,1,200,299.5Z" transform="translate(-100 -100)"/><path d="M200,101a99.11,99.11,0,0,1,99,99,98,98,0,0,1-20.79,60.7L278,261v32H234l-.16.06A99,99,0,1,1,200,101m0-1a100,100,0,1,0,34.19,194H279V261.31A100,100,0,0,0,200,100Z" transform="translate(-100 -100)"/></svg>