<svg id="Layer_1" data-name="Layer 1" xmlns="http://www.w3.org/2000/svg" viewBox="0 0 200 200"><defs><style>.cls-1{fill:#fff;}</style></defs><title>comment5pt</title><path class="cls-1" d="M200,297.5A97.5,97.5,0,1,1,297.5,200,96.59,96.59,0,0,1,277,259.78l-.53.67V291.5H233.75l-.41.15A97.27,97.27,0,0,1,200,297.5Z" transform="translate(-100 -100)"/><path d="M200,105a95.11,95.11,0,0,1,95,95,94.06,94.06,0,0,1-19.95,58.24L274,259.6V289H233.31l-.83.3A95,95,0,1,1,200,105m0-5a100,100,0,1,0,34.19,194H279V261.31A100,100,0,0,0,200,100Z" transform="translate(-100 -100)"/></svg>