<svg id="Layer_1" data-name="Layer 1" xmlns="http://www.w3.org/2000/svg" viewBox="0 0 311 311"><defs><style>.cls-1,.cls-2{fill:#fff;}.cls-2,.cls-3{stroke:#000;stroke-miterlimit:10;}</style></defs><title>explore</title><circle class="cls-1" cx="198.18" cy="198.29" r="155" transform="translate(-124.84 155.42) rotate(-45)"/><path d="M198.18,43.79A154.5,154.5,0,0,1,307.43,307.54,154.5,154.5,0,0,1,88.93,89,153.49,153.49,0,0,1,198.18,43.79m0-1a155.5,155.5,0,1,0,155.5,155.5,155.5,155.5,0,0,0-155.5-155.5Z" transform="translate(-42.68 -42.79)"/><line class="cls-2" x1="235.08" y1="37.78" x2="117.89" y2="130.34"/><line class="cls-2" x1="235.08" y1="37.78" x2="193.98" y2="180.84"/><line class="cls-2" x1="118.23" y1="130.69" x2="193.85" y2="180.47"/><line class="cls-3" x1="75.92" y1="273.22" x2="193.59" y2="181.26"/><line class="cls-3" x1="75.92" y1="273.22" x2="117.76" y2="130.38"/><line class="cls-3" x1="193.25" y1="180.91" x2="117.89" y2="130.74"/></svg>