<svg id="Layer_1" data-name="Layer 1" xmlns="http://www.w3.org/2000/svg" viewBox="0 0 200 200"><title>feedgrid5pt</title><path d="M290,102v56.67H100V102H290m5-5H95v66.67H295V97Z" transform="translate(-95 -97)"/><path d="M290,102V292H100V102H290m5-5H95V297H295V97Z" transform="translate(-95 -97)"/><path d="M290,235.33V292H100V235.33H290m5-5H95V297H295V230.33Z" transform="translate(-95 -97)"/><path d="M156.67,102V292H100V102h56.67m5-5H95V297h66.67V97Z" transform="translate(-95 -97)"/><path d="M290,102V292H233.33V102H290m5-5H228.33V297H295V97Z" transform="translate(-95 -97)"/></svg>