<svg id="Layer_1" data-name="Layer 1" xmlns="http://www.w3.org/2000/svg" viewBox="0 0 200 200"><title>feedgrid</title><path d="M294,98v64.67H96V98H294m1-1H95v66.67H295V97Z" transform="translate(-95 -97)"/><path d="M294,98V296H96V98H294m1-1H95V297H295V97Z" transform="translate(-95 -97)"/><path d="M294,231.33V296H96V231.33H294m1-1H95V297H295V230.33Z" transform="translate(-95 -97)"/><path d="M160.67,98V296H96V98h64.67m1-1H95V297h66.67V97Z" transform="translate(-95 -97)"/><path d="M294,98V296H229.33V98H294m1-1H228.33V297H295V97Z" transform="translate(-95 -97)"/></svg>