<svg id="Layer_1" data-name="Layer 1" xmlns="http://www.w3.org/2000/svg" viewBox="0 0 289 362"><defs><style>.cls-1,.cls-2{fill:#fff;}.cls-2,.cls-3{stroke:#000;stroke-miterlimit:10;stroke-width:2px;}.cls-3{fill:none;}</style></defs><title>follow</title><rect class="cls-1" x="45.5" y="123" width="198" height="198" rx="34.7"/><path d="M264.3,161.5A33.74,33.74,0,0,1,298,195.2V323.8a33.74,33.74,0,0,1-33.7,33.7H135.7A33.74,33.74,0,0,1,102,323.8V195.2a33.74,33.74,0,0,1,33.7-33.7H264.3m0-2H135.7A35.7,35.7,0,0,0,100,195.2V323.8a35.7,35.7,0,0,0,35.7,35.7H264.3A35.7,35.7,0,0,0,300,323.8V195.2a35.7,35.7,0,0,0-35.7-35.7Z" transform="translate(-55.5 -37.5)"/><rect class="cls-1" y="220" width="289" height="142"/><circle class="cls-2" cx="144.5" cy="51" r="50"/><line class="cls-3" y1="60" x2="68" y2="60"/><line class="cls-3" x1="34.5" y1="26.5" x2="34.5" y2="94.5"/></svg>