<svg id="Layer_1" data-name="Layer 1" xmlns="http://www.w3.org/2000/svg" viewBox="0 0 289 363.5"><defs><style>.cls-1,.cls-2{fill:#fff;}.cls-2,.cls-3{stroke:#000;stroke-miterlimit:10;stroke-width:5px;}.cls-3{fill:none;}</style></defs><title>follow5pt</title><rect class="cls-1" x="47" y="126" width="195" height="195" rx="33.2"/><path d="M264.3,164.5A30.73,30.73,0,0,1,295,195.2V323.8a30.73,30.73,0,0,1-30.7,30.7H135.7A30.73,30.73,0,0,1,105,323.8V195.2a30.73,30.73,0,0,1,30.7-30.7H264.3m0-5H135.7A35.7,35.7,0,0,0,100,195.2V323.8a35.7,35.7,0,0,0,35.7,35.7H264.3A35.7,35.7,0,0,0,300,323.8V195.2a35.7,35.7,0,0,0-35.7-35.7Z" transform="translate(-55.5 -36)"/><rect class="cls-1" y="221.5" width="289" height="142"/><circle class="cls-2" cx="144.5" cy="52.5" r="50"/><line class="cls-3" y1="61.5" x2="68" y2="61.5"/><line class="cls-3" x1="34.5" y1="28" x2="34.5" y2="96"/></svg>