<svg id="Layer_1" data-name="Layer 1" xmlns="http://www.w3.org/2000/svg" viewBox="0 0 225 250.35"><defs><style>.cls-1,.cls-2{fill:#fff;}.cls-2{stroke:#000;stroke-miterlimit:10;}</style></defs><title>igtv</title><rect class="cls-1" x="0.5" y="25.85" width="224" height="224" rx="26.62"/><path d="M280.22,85.84A26.15,26.15,0,0,1,306.34,112V282.72a26.15,26.15,0,0,1-26.12,26.12H109.47a26.16,26.16,0,0,1-26.13-26.12V112a26.16,26.16,0,0,1,26.13-26.13H280.22m0-1H109.47A27.13,27.13,0,0,0,82.34,112V282.72a27.13,27.13,0,0,0,27.13,27.12H280.22a27.12,27.12,0,0,0,27.12-27.12V112a27.13,27.13,0,0,0-27.12-27.13Z" transform="translate(-82.34 -59.49)"/><line class="cls-2" x1="66" y1="4.07" x2="101" y2="25.69"/><line class="cls-2" x1="166" y1="0.47" x2="101" y2="25.69"/><line class="cls-2" x1="50.5" y1="153.31" x2="116.31" y2="91.66"/><line class="cls-2" x1="109.07" y1="159.66" x2="174.5" y2="98.31"/><line class="cls-2" x1="116.31" y1="91.16" x2="109.5" y2="159.31"/></svg>