<svg id="Layer_1" data-name="Layer 1" xmlns="http://www.w3.org/2000/svg" viewBox="0 0 200 202.36"><defs><style>.cls-1,.cls-2{fill:#fff;}.cls-2{stroke:#000;stroke-miterlimit:10;stroke-width:5px;}</style></defs><title>igtv5pt</title><rect class="cls-1" x="2.5" y="24.78" width="195" height="175.08" rx="24.62"/><path d="M272.88,124.92A22.14,22.14,0,0,1,295,147V272.88A22.14,22.14,0,0,1,272.88,295H127.12A22.14,22.14,0,0,1,105,272.88V147a22.14,22.14,0,0,1,22.12-22.12H272.88m0-5H127.12A27.12,27.12,0,0,0,100,147V272.88A27.12,27.12,0,0,0,127.12,300H272.88A27.12,27.12,0,0,0,300,272.88V147a27.12,27.12,0,0,0-27.12-27.12Z" transform="translate(-100 -97.64)"/><line class="cls-2" x1="58.67" y1="5.24" x2="89.78" y2="22.55"/><line class="cls-2" x1="147.56" y1="2.36" x2="89.78" y2="22.55"/><line class="cls-2" x1="44.89" y1="124.69" x2="103.39" y2="75.35"/><line class="cls-2" x1="96.95" y1="129.77" x2="155.11" y2="80.67"/><line class="cls-2" x1="103.39" y1="74.95" x2="97.33" y2="129.49"/></svg>