<svg id="Layer_1" data-name="Layer 1" xmlns="http://www.w3.org/2000/svg" viewBox="0 0 220 220"><title>profile5pt</title><path d="M202.5,95a105.12,105.12,0,0,1,105,105,103.83,103.83,0,0,1-17,57.26c-12.37-25.5-41-43.66-74.65-47.5a41,41,0,1,0-26.76,0c-33.68,3.84-62.28,22-74.65,47.5A103.83,103.83,0,0,1,97.5,200a105.12,105.12,0,0,1,105-105m0-5a110,110,0,0,0-86.79,177.59C125.5,236.8,160.64,214,202.5,214s77,22.8,86.79,53.59A110,110,0,0,0,202.5,90Zm0,117a36,36,0,1,1,36-36,36,36,0,0,1-36,36Z" transform="translate(-92.5 -90)"/><path d="M202.5,140a31,31,0,1,1-31,31,31,31,0,0,1,31-31m0-5a36,36,0,1,0,36,36,36,36,0,0,0-36-36Z" transform="translate(-92.5 -90)"/><path d="M202.5,219c19.39,0,37.64,5,52.76,14.48,13.58,8.51,23.58,20.2,28.4,33.14a105,105,0,0,1-162.32,0c4.82-12.94,14.82-24.63,28.4-33.14C164.86,224,183.11,219,202.5,219m0-5c-41.86,0-77,22.8-86.79,53.59a110,110,0,0,0,173.58,0C279.5,236.8,244.36,214,202.5,214Z" transform="translate(-92.5 -90)"/></svg>