<svg id="Layer_1" data-name="Layer 1" xmlns="http://www.w3.org/2000/svg" viewBox="0 0 220 220"><title>profile</title><path d="M202.5,91a109,109,0,0,1,87.14,174.49c-10.92-31-46.42-52.49-87.14-52.49s-76.22,21.49-87.14,52.49A109,109,0,0,1,202.5,91m0,117a37,37,0,1,0-37-37,37,37,0,0,0,37,37m0-118a110,110,0,0,0-86.79,177.59C125.5,236.8,160.64,214,202.5,214s77,22.8,86.79,53.59A110,110,0,0,0,202.5,90Zm0,117a36,36,0,1,1,36-36,36,36,0,0,1-36,36Z" transform="translate(-92.5 -90)"/><path d="M202.5,136a35,35,0,1,1-35,35,35,35,0,0,1,35-35m0-1a36,36,0,1,0,36,36,36,36,0,0,0-36-36Z" transform="translate(-92.5 -90)"/><path d="M202.5,215c20.15,0,39.13,5.22,54.89,15.09,15.07,9.45,26,22.68,30.78,37.3a109,109,0,0,1-171.34,0c4.8-14.62,15.71-27.85,30.78-37.3C163.37,220.22,182.35,215,202.5,215m0-1c-41.86,0-77,22.8-86.79,53.59a110,110,0,0,0,173.58,0C279.5,236.8,244.36,214,202.5,214Z" transform="translate(-92.5 -90)"/></svg>