<svg id="Layer_1" data-name="Layer 1" xmlns="http://www.w3.org/2000/svg" viewBox="0 0 220 220"><defs><style>.cls-1{fill:#fff;}</style></defs><title>profileFilled</title><path d="M290.06,262.37C277.91,232.2,242.7,211.5,202.5,211.5s-75.41,20.69-87.56,50.87A106.35,106.35,0,0,1,95,200a107.5,107.5,0,0,1,215,0A106.35,106.35,0,0,1,290.06,262.37ZM202.5,132.5A38.5,38.5,0,1,0,241,171,38.54,38.54,0,0,0,202.5,132.5Z" transform="translate(-92.5 -90)"/><path d="M202.5,95a105.12,105.12,0,0,1,105,105,103.83,103.83,0,0,1-17,57.26c-12.37-25.5-41-43.66-74.65-47.5a41,41,0,1,0-26.76,0c-33.68,3.84-62.28,22-74.65,47.5A103.83,103.83,0,0,1,97.5,200a105.12,105.12,0,0,1,105-105m0-5a110,110,0,0,0-86.79,177.59C125.5,236.8,160.64,214,202.5,214s77,22.8,86.79,53.59A110,110,0,0,0,202.5,90Zm0,117a36,36,0,1,1,36-36,36,36,0,0,1-36,36Z" transform="translate(-92.5 -90)"/><circle class="cls-1" cx="110" cy="81" r="36"/><path class="cls-1" d="M202.5,310a109.81,109.81,0,0,0,86.79-42.41C279.5,236.8,244.36,214,202.5,214s-77,22.8-86.79,53.59A109.81,109.81,0,0,0,202.5,310Z" transform="translate(-92.5 -90)"/></svg>