<svg id="Layer_1" data-name="Layer 1" xmlns="http://www.w3.org/2000/svg" viewBox="0 0 224.18 238.2"><defs><style>.cls-1,.cls-2{fill:#fff;}.cls-1{stroke:#000;stroke-miterlimit:10;}</style></defs><title>search</title><line class="cls-1" x1="122.26" y1="136.29" x2="223.82" y2="237.85"/><path class="cls-2" d="M186.4,282.27c-1.16,0-2.32,0-3.49-.06a99.5,99.5,0,0,1,3.36-198.94c1.16,0,2.32,0,3.49.06a99.5,99.5,0,0,1-3.36,198.94Z" transform="translate(-86.33 -82.77)"/><path d="M186.28,82.77v1c1.15,0,2.31,0,3.47.06a99,99,0,0,1-3.35,197.94c-1.15,0-2.32,0-3.48-.06a99,99,0,0,1,3.35-197.94v-1m0,0a100,100,0,0,0-3.38,199.94c1.18,0,2.34.06,3.51.06a100,100,0,0,0,3.38-199.94q-1.75-.06-3.51-.06Z" transform="translate(-86.33 -82.77)"/></svg>