<svg id="Layer_1" data-name="Layer 1" xmlns="http://www.w3.org/2000/svg" viewBox="0 0 201.71 201.82"><defs><style>.cls-1,.cls-2{fill:#fff;}.cls-1{stroke:#000;stroke-miterlimit:10;stroke-width:5px;}</style></defs><title>search5pt</title><line class="cls-1" x1="109.25" y1="114.6" x2="200" y2="200"/><path class="cls-2" d="M187.66,267.37c-1,0-2,0-3.06-.05-24.21-.79-46.34-10.65-62.32-27.77A78.34,78.34,0,0,1,100.8,183c.78-21.25,10.17-41.09,26.46-55.86a89.35,89.35,0,0,1,60.29-22.92c1,0,2,0,3,0C214.82,105,237,114.89,252.93,132a78.38,78.38,0,0,1,21.48,56.58c-.78,21.25-10.18,41.09-26.46,55.87A89.42,89.42,0,0,1,187.66,267.37Z" transform="translate(-98.25 -101.69)"/><path d="M187.55,106.69c1,0,2,0,3,0,23.54.77,45.06,10.35,60.58,27a75.84,75.84,0,0,1,20.81,54.78c-.75,20.57-9.86,39.79-25.64,54.1a86.88,86.88,0,0,1-58.61,22.27c-1,0-2,0-3-.05-23.55-.76-45.06-10.35-60.58-27a75.83,75.83,0,0,1-20.81-54.77c.75-20.58,9.86-39.8,25.64-54.11a86.88,86.88,0,0,1,58.61-22.27h0m0-5c-47.93,0-87.58,35.77-89.25,81.19-1.7,46.41,36.9,85.34,86.22,86.94,1,0,2.1.05,3.14.05,47.92,0,87.58-35.77,89.25-81.19,1.7-46.41-36.91-85.34-86.23-86.94-1.05,0-2.09,0-3.13,0Z" transform="translate(-98.25 -101.69)"/></svg>