<svg id="Layer_1" data-name="Layer 1" xmlns="http://www.w3.org/2000/svg" viewBox="0 0 276.04 271.05"><defs><style>.cls-1{fill:#fff;}</style></defs><title>settings</title><path d="M260,101.5a10.5,10.5,0,1,1,9.1-5.25A10.53,10.53,0,0,1,260,101.5Z" transform="translate(-60.01 -65)"/><path d="M260,81h0a10,10,0,1,1-8.67,5A10,10,0,0,1,260,81m0-1a11,11,0,1,0,5.49,1.47A11,11,0,0,0,260,80Z" transform="translate(-60.01 -65)"/><path d="M309,150.52a10.5,10.5,0,1,1,9.11-5.25A10.53,10.53,0,0,1,309,150.52Z" transform="translate(-60.01 -65)"/><path d="M309.05,130h0a10,10,0,1,1-8.67,5,10.06,10.06,0,0,1,8.67-5m0-1a11,11,0,1,0,5.49,1.48,11,11,0,0,0-5.49-1.48Z" transform="translate(-60.01 -65)"/><path d="M325,210.53a10.5,10.5,0,1,1,9.11-5.26A10.53,10.53,0,0,1,325,210.53Z" transform="translate(-60.01 -65)"/><path d="M325.06,190h0a10,10,0,1,1-8.67,5,10.06,10.06,0,0,1,8.67-5m0-1a11,11,0,1,0,5.49,1.48,11,11,0,0,0-5.49-1.48Z" transform="translate(-60.01 -65)"/><path d="M309,266.54a10.5,10.5,0,1,1,9.11-5.26A10.53,10.53,0,0,1,309,266.54Z" transform="translate(-60.01 -65)"/><path d="M309.07,246h0a10,10,0,0,1,5,1.34A10,10,0,1,1,300.39,251a10.07,10.07,0,0,1,8.68-5m0-1a11,11,0,1,0,5.49,1.48,11,11,0,0,0-5.49-1.48Z" transform="translate(-60.01 -65)"/><path d="M260,319.54a10.5,10.5,0,1,1,9.11-5.25A10.52,10.52,0,0,1,260,319.54Z" transform="translate(-60.01 -65)"/><path d="M260.06,299h0a10,10,0,1,1-8.67,5,10,10,0,0,1,8.67-5m0-1a11,11,0,1,0,5.49,1.48,11,11,0,0,0-5.49-1.48Z" transform="translate(-60.01 -65)"/><path d="M201,335.55a10.5,10.5,0,1,1,9.11-5.25A10.52,10.52,0,0,1,201,335.55Z" transform="translate(-60.01 -65)"/><path d="M201.05,315.05h0a10,10,0,1,1-8.67,5,10,10,0,0,1,8.67-5m0-1a11,11,0,1,0,5.49,1.48,11,11,0,0,0-5.49-1.48Z" transform="translate(-60.01 -65)"/><path d="M134,319.56a10.5,10.5,0,1,1,9.11-5.26A10.53,10.53,0,0,1,134,319.56Z" transform="translate(-60.01 -65)"/><path d="M134,299.05h0a10.06,10.06,0,0,1,5,1.34,10,10,0,1,1-13.66,3.66,10.05,10.05,0,0,1,8.67-5m0-1a11,11,0,1,0,5.49,1.48,11,11,0,0,0-5.49-1.48Z" transform="translate(-60.01 -65)"/><path d="M95,281.55A10.5,10.5,0,1,1,100.27,262a10.51,10.51,0,0,1,3.85,14.34A10.54,10.54,0,0,1,95,281.55Z" transform="translate(-60.01 -65)"/><path d="M95,261.05h0a10,10,0,1,1-8.67,5,10,10,0,0,1,8.67-5m0-1a11,11,0,1,0,5.49,1.48A11,11,0,0,0,95,260.05Z" transform="translate(-60.01 -65)"/><path d="M92,141.55a10.5,10.5,0,1,1,9.1-5.25A10.47,10.47,0,0,1,92,141.55Z" transform="translate(-60.01 -65)"/><path d="M92,121h0a10,10,0,1,1-8.67,5A10,10,0,0,1,92,121m0-1a11,11,0,1,0,5.49,1.48A11,11,0,0,0,92,120Z" transform="translate(-60.01 -65)"/><path d="M136,101.52a10.5,10.5,0,1,1,9.11-5.25A10.46,10.46,0,0,1,136,101.52Z" transform="translate(-60.01 -65)"/><path d="M136,81h0a10,10,0,1,1-8.67,5A10,10,0,0,1,136,81m0-1a11,11,0,1,0,5.49,1.48A11,11,0,0,0,136,80Z" transform="translate(-60.01 -65)"/><path d="M71,210.55a10.51,10.51,0,1,1,9.1-5.26A10.47,10.47,0,0,1,71,210.55Z" transform="translate(-60.01 -65)"/><path d="M71,190h0a10,10,0,1,1-8.67,5A10.09,10.09,0,0,1,71,190m0-1a11,11,0,1,0,5.49,1.48A11,11,0,0,0,71,189Z" transform="translate(-60.01 -65)"/><circle cx="140.99" cy="11" r="10.5"/><path d="M201,66a10,10,0,1,1-10,10,10,10,0,0,1,10-10m0-1a11,11,0,1,0,11,11,11,11,0,0,0-11-11Z" transform="translate(-60.01 -65)"/><circle cx="139.99" cy="135" r="124.5"/><path d="M200,76a124,124,0,1,1-87.68,36.32A123.19,123.19,0,0,1,200,76m0-1A125,125,0,1,0,325,200,125,125,0,0,0,200,75Z" transform="translate(-60.01 -65)"/><circle class="cls-1" cx="139.99" cy="135" r="119.5"/><path d="M200,81a119,119,0,1,1-84.15,34.85A118.25,118.25,0,0,1,200,81m0-1A120,120,0,1,0,320,200,120,120,0,0,0,200,80Z" transform="translate(-60.01 -65)"/></svg>