<svg id="Layer_1" data-name="Layer 1" xmlns="http://www.w3.org/2000/svg" viewBox="0 0 265 296"><defs><style>.cls-1{fill:#fff;}</style></defs><title>tagged5pt</title><path class="cls-1" d="M112.47,268.5a10,10,0,0,1-10-10V83.47a10,10,0,0,1,10-10H179l18-18,18,18h72.57a10,10,0,0,1,10,10V258.53a10,10,0,0,1-10,10Z" transform="translate(-67.5 -52)"/><path d="M197,59.07l15.46,15.47L213.93,76h73.6A7.48,7.48,0,0,1,295,83.47V258.53a7.48,7.48,0,0,1-7.47,7.47H112.47a7.48,7.48,0,0,1-7.47-7.47V83.47A7.48,7.48,0,0,1,112.47,76h67.6l1.47-1.46L197,59.07M197,52,178,71H112.47A12.47,12.47,0,0,0,100,83.47V258.53A12.47,12.47,0,0,0,112.47,271H287.53A12.47,12.47,0,0,0,300,258.53V83.47A12.47,12.47,0,0,0,287.53,71H216L197,52Z" transform="translate(-67.5 -52)"/><circle class="cls-1" cx="132.5" cy="82" r="32.5"/><path d="M200,104a30,30,0,1,1-30,30,30,30,0,0,1,30-30m0-5a35,35,0,1,0,35,35,35,35,0,0,0-35-35Z" transform="translate(-67.5 -52)"/><path d="M248.68,182A21.34,21.34,0,0,1,270,203.32v97.36A21.34,21.34,0,0,1,248.68,322H151.32A21.34,21.34,0,0,1,130,300.68V203.32A21.34,21.34,0,0,1,151.32,182h97.36m0-5H151.32A26.32,26.32,0,0,0,125,203.32v97.36A26.32,26.32,0,0,0,151.32,327h97.36A26.32,26.32,0,0,0,275,300.68V203.32A26.32,26.32,0,0,0,248.68,177Z" transform="translate(-67.5 -52)"/><rect class="cls-1" y="219" width="265" height="77"/></svg>