<svg id="Layer_1" data-name="Layer 1" xmlns="http://www.w3.org/2000/svg" viewBox="0 0 265 296"><defs><style>.cls-1{fill:#fff;}</style></defs><title>tagged</title><path class="cls-1" d="M112.47,270.5a12,12,0,0,1-12-12V83.47a12,12,0,0,1,12-12h65.74L197,52.71,215.79,71.5h71.74a12,12,0,0,1,12,12V258.53a12,12,0,0,1-12,12Z" transform="translate(-67.5 -52)"/><path d="M197,53.41l18.29,18.3.3.29h71.94A11.48,11.48,0,0,1,299,83.47V258.53A11.48,11.48,0,0,1,287.53,270H112.47A11.48,11.48,0,0,1,101,258.53V83.47A11.48,11.48,0,0,1,112.47,72h65.94l.3-.29L197,53.41M197,52,178,71H112.47A12.47,12.47,0,0,0,100,83.47V258.53A12.47,12.47,0,0,0,112.47,271H287.53A12.47,12.47,0,0,0,300,258.53V83.47A12.47,12.47,0,0,0,287.53,71H216L197,52Z" transform="translate(-67.5 -52)"/><circle class="cls-1" cx="132.5" cy="82" r="34.5"/><path d="M200,100a34,34,0,1,1-34,34,34,34,0,0,1,34-34m0-1a35,35,0,1,0,35,35,35,35,0,0,0-35-35Z" transform="translate(-67.5 -52)"/><path d="M248.68,178A25.35,25.35,0,0,1,274,203.32v97.36A25.35,25.35,0,0,1,248.68,326H151.32A25.35,25.35,0,0,1,126,300.68V203.32A25.35,25.35,0,0,1,151.32,178h97.36m0-1H151.32A26.32,26.32,0,0,0,125,203.32v97.36A26.32,26.32,0,0,0,151.32,327h97.36A26.32,26.32,0,0,0,275,300.68V203.32A26.32,26.32,0,0,0,248.68,177Z" transform="translate(-67.5 -52)"/><rect class="cls-1" y="219" width="265" height="77"/></svg>